<svg xmlns="http://www.w3.org/2000/svg" width="277.627" height="208.22" viewBox="0 0 277.627 208.22"><defs><style>.a{opacity:0.03;}.b{fill:#353490;}</style></defs><g class="a" transform="translate(0 -63.566)"><g transform="translate(0 63.566)"><g transform="translate(0 0)"><path class="b" d="M225.572,167.676l-1.77.174a88.271,88.271,0,0,0,1.77-17.525,86.758,86.758,0,1,0-173.517,0l.087.868a60.593,60.593,0,0,0,8.589,120.594h43.518a17.2,17.2,0,0,0,17.213-17.213V202.379H84.642l54.172-69.407,54.172,69.407h-36.82v52.194a17.188,17.188,0,0,0,17.213,17.213h52.194a52.055,52.055,0,1,0,0-104.11Z" transform="translate(0 -63.566)"/></g></g></g></svg>